<?xml version="1.0" encoding="UTF-8" standalone="no"?>
<svg width="46px" height="46px" viewBox="0 0 46 46" version="1.1" xmlns="http://www.w3.org/2000/svg" xmlns:xlink="http://www.w3.org/1999/xlink">
    <g stroke="none" stroke-width="1" fill="none" fill-rule="evenodd">
        <g transform="translate(-1, -1)">
            <path d="M31.64,23.20454545 C31.64,22.2363636 31.5527273,21.3 31.3891364,20.4 L23,20.4 L23,24.845 L27.8436364,24.845 C27.635,25.97 27.0009091,26.9231818 26.0477273,27.5613636 L26.0477273,30.0204545 L29.9563636,30.0204545 C31.6582273,28.4631818 32.64,26.0204545 32.64,23.20454545 L31.64,23.20454545 Z" fill="#4285F4"/>
            <path d="M23,32 C26.43,32 29.2672727,30.7863636 31.2981818,28.8204545 L27.3895455,26.3613636 C26.4913636,26.99 25.3459091,27.3522727 23,27.3522727 C20.0518182,27.3522727 17.5681818,25.3459091 16.6459091,22.6477273 L12.6068182,22.6477273 L12.6068182,25.1772727 C14.6290909,29.2045455 18.5181818,32 23,32 L23,32 Z" fill="#34A853"/>
            <path d="M16.6459091,22.6477273 C16.4813636,22.0113636 16.3863636,21.3368182 16.3863636,20.6363636 C16.3863636,19.9359091 16.4813636,19.2613636 16.6459091,18.625 L16.6459091,16.0954545 L12.6068182,16.0954545 C11.9186364,17.4931818 11.5,19.0227273 11.5,20.6363636 C11.5,22.25 11.9186364,23.7795455 12.6068182,25.1772727 L16.6459091,22.6477273 L16.6459091,22.6477273 Z" fill="#FBBC05"/>
            <path d="M23,13.9204545 C24.7018182,13.9204545 26.2040909,14.5113636 27.3940909,15.6477273 L30.8940909,12.1477273 C29.2659091,10.6204545 26.4286364,9.27272727 23,9.27272727 C18.5181818,9.27272727 14.6290909,12.0681818 12.6068182,16.0954545 L16.6459091,18.625 C17.5681818,15.9268182 20.0518182,13.9204545 23,13.9204545 L23,13.9204545 Z" fill="#EA4335"/>
        </g>
    </g>
</svg>
